name Walk6.mot
datacolumns 19
datarows 17
range 1.26600000 1.28200000
endheader

                time	   L_ground_force_vx	   L_ground_force_vy	   L_ground_force_vz	   L_ground_force_px	   L_ground_force_py	   L_ground_force_pz	   R_ground_force_vx	   R_ground_force_vy	   R_ground_force_vz	   R_ground_force_px	   R_ground_force_py	   R_ground_force_pz	   L_ground_torque_x	   L_ground_torque_y	   L_ground_torque_z	   R_ground_torque_x	   R_ground_torque_y	   R_ground_torque_z	
          1.26600000	          0.00000000	          0.00000000	          0.00000000	          0.00000000	          0.00000000	          0.00000000	          0.00000000	          0.00000000	          0.00000000	          0.00000000	          0.00000000	          0.00000000	          0.00000000	          0.00000000	          0.00000000	          0.00000000	          0.00000000	          0.00000000	
          1.26700000	          0.00000000	          0.00000000	          0.00000000	          0.00000000	          0.00000000	          0.00000000	          0.00000000	          0.00000000	          0.00000000	          0.00000000	          0.00000000	          0.00000000	          0.00000000	          0.00000000	          0.00000000	          0.00000000	          0.00000000	          0.00000000	
          1.26800000	          0.00000000	          0.00000000	          0.00000000	          0.00000000	          0.00000000	          0.00000000	          0.00000000	          0.00000000	          0.00000000	          0.00000000	          0.00000000	          0.00000000	          0.00000000	          0.00000000	          0.00000000	          0.00000000	          0.00000000	          0.00000000	
          1.26900000	          0.00000000	          0.00000000	          0.00000000	          0.00000000	          0.00000000	          0.00000000	          0.00000000	          0.00000000	          0.00000000	          0.00000000	          0.00000000	          0.00000000	          0.00000000	          0.00000000	          0.00000000	          0.00000000	          0.00000000	          0.00000000	
          1.27000000	          0.00000000	          0.00000000	          0.00000000	          0.00000000	          0.00000000	          0.00000000	          0.00000000	          0.00000000	          0.00000000	          0.00000000	          0.00000000	          0.00000000	          0.00000000	          0.00000000	          0.00000000	          0.00000000	          0.00000000	          0.00000000	
          1.27100000	          0.00000000	          0.00000000	          0.00000000	          0.00000000	          0.00000000	          0.00000000	          0.00000000	          0.00000000	          0.00000000	          0.00000000	          0.00000000	          0.00000000	          0.00000000	          0.00000000	          0.00000000	          0.00000000	          0.00000000	          0.00000000	
          1.27200000	          0.00000000	          0.00000000	          0.00000000	          0.00000000	          0.00000000	          0.00000000	          0.00000000	          0.00000000	          0.00000000	          0.00000000	          0.00000000	          0.00000000	          0.00000000	          0.00000000	          0.00000000	          0.00000000	          0.00000000	          0.00000000	
          1.27300000	          0.00000000	          0.00000000	          0.00000000	          0.00000000	          0.00000000	          0.00000000	        -10.32349285	         12.13355332	         -0.97088991	         -0.25270123	          0.00000000	          0.33117686	          0.00000000	          0.00000000	          0.00000000	          0.00000000	          0.04203392	          0.00000000	
          1.27400000	          0.00000000	          0.00000000	          0.00000000	          0.00000000	          0.00000000	          0.00000000	        -17.18320253	         23.56072086	         -1.44701407	         -0.25772430	          0.00000000	          0.32652227	          0.00000000	          0.00000000	          0.00000000	          0.00000000	          0.04521417	          0.00000000	
          1.27500000	          0.00000000	          0.00000000	          0.00000000	          0.00000000	          0.00000000	          0.00000000	        -25.28911581	         39.70143943	         -1.87817900	         -0.26064774	          0.00000000	          0.32361303	          0.00000000	          0.00000000	          0.00000000	          0.00000000	          0.05035201	          0.00000000	
          1.27600000	          0.00000000	          0.00000000	          0.00000000	          0.00000000	          0.00000000	          0.00000000	        -34.28881322	         61.32718841	         -2.15077115	         -0.26236346	          0.00000000	          0.32190931	          0.00000000	          0.00000000	          0.00000000	          0.00000000	          0.07029100	          0.00000000	
          1.27700000	          0.00000000	          0.00000000	          0.00000000	          0.00000000	          0.00000000	          0.00000000	        -43.72279278	         88.80019675	         -2.11758413	         -0.26337872	          0.00000000	          0.32112639	          0.00000000	          0.00000000	          0.00000000	          0.00000000	          0.12168543	          0.00000000	
          1.27800000	          0.00000000	          0.00000000	          0.00000000	          0.00000000	          0.00000000	          0.00000000	        -52.90628133	        121.68897809	         -1.58694419	         -0.26405777	          0.00000000	          0.32078024	          0.00000000	          0.00000000	          0.00000000	          0.00000000	          0.19866107	          0.00000000	
          1.27900000	          0.00000000	          0.00000000	          0.00000000	          0.00000000	          0.00000000	          0.00000000	        -61.01635696	        158.61042588	         -0.34546542	         -0.26457949	          0.00000000	          0.32037267	          0.00000000	          0.00000000	          0.00000000	          0.00000000	          0.26876991	          0.00000000	
          1.28000000	          0.00000000	          0.00000000	          0.00000000	          0.00000000	          0.00000000	          0.00000000	        -67.34831637	        197.38326269	          1.76946562	         -0.26495062	          0.00000000	          0.31968705	          0.00000000	          0.00000000	          0.00000000	          0.00000000	          0.30645640	          0.00000000	
          1.28100000	          0.00000000	          0.00000000	          0.00000000	          0.00000000	          0.00000000	          0.00000000	        -71.53694629	        235.47923061	          4.78037195	         -0.26511029	          0.00000000	          0.31884067	          0.00000000	          0.00000000	          0.00000000	          0.00000000	          0.31945806	          0.00000000	
          1.28200000	          0.00000000	          0.00000000	          0.00000000	          0.00000000	          0.00000000	          0.00000000	        -73.61354083	        270.57923799	          8.53692073	         -0.26503688	          0.00000000	          0.31807319	          0.00000000	          0.00000000	          0.00000000	          0.00000000	          0.33466583	          0.00000000	
